<svg xmlns="http://www.w3.org/2000/svg" width="336" height="336" fill="none"><path stroke="#263238" stroke-linecap="round" stroke-linejoin="round" d="M216.452 65.412c-.698.56-1.51.96-2.379 1.17-2.386.53-8.736.262-9.812 3.178a6.3 6.3 0 0 1-3.971 3.71s-5.033.269-5.302 1.344c-.269 1.075-2.117 2.916-2.117 2.916h86.681s2.917-4.502-1.854-8.736c-4.173-3.71-11.801 1.909-12.768-2.688M264.143 59.56c-.967-3.488-3.003-8.192-7.136-9.94-6.895-2.916-12.721 1.062-14.314 5.034-1.593 3.971-2.648 6.626-8.736 3.178-6.088-3.447-11.424-3.178-13.252 1.344a20.687 20.687 0 0 1-1.969 3.737M69.249 111.619h30.099s1.761-2.688-1.122-5.289c-2.883-2.6-8.501 2.245-7.695-3.205 0 0-.672-6.72-4.811-8.494a6.72 6.72 0 0 0-6.653.605"/><path stroke="#263238" stroke-linecap="round" stroke-linejoin="round" d="M77.065 97.675c-.961 2.406-1.606 4.032-5.289 1.922-3.682-2.11-6.894-1.922-8.017.806-1.122 2.729-2.567 4.167-4.032 4.483-1.465.316-5.288.161-5.933 1.928a3.847 3.847 0 0 1-2.406 2.245s-3.044.154-3.206.8a6.192 6.192 0 0 1-1.283 1.76h17.613M219.912 111.619h14.213s1.76-2.688-1.123-5.288c-2.882-2.601-8.494 2.244-7.694-3.206 0 0-.638-6.72-4.812-8.494-4.173-1.774-7.687.672-8.655 3.044-.968 2.372-1.599 4.032-5.289 1.922-3.689-2.11-6.894-1.922-8.01.806-1.115 2.729-2.567 4.167-4.032 4.483-1.465.316-5.288.161-5.927 1.928a3.854 3.854 0 0 1-2.406 2.245s-3.044.154-3.205.8a6.19 6.19 0 0 1-1.284 1.76h33.48"/><g fill="#000" opacity=".1"><path d="M15.61 156.018c2.648.524 8.528-.893 8.528-.893s-2.11-3.596-2.271-3.804c-1.888-2.433-6.969-6.048-10.201-4.838a4.084 4.084 0 0 0-2.11 5.691c1.055 2.191 3.804 3.394 6.055 3.844Z" opacity=".1"/><path d="M21.383 172.704c2.58-.181 7.52-2.856 7.916-3.071a72.401 72.401 0 0 0 5.128 8.151 125.245 125.245 0 0 0 3.407 4.503 55.098 55.098 0 0 0-1.297-1.196c-2.46-1.842-8.306-3.958-11.115-1.969a4.083 4.083 0 0 0-.531 6.048c1.6 1.827 4.563 2.264 6.854 2.103 2.292-.161 6.586-2.365 7.701-2.957.457.565.9 1.136 1.344 1.7 2.191 2.688 4.389 5.376 6.465 8.105.732.954 1.411 1.922 2.103 2.883a38.083 38.083 0 0 0-1.122-1.035c-2.466-1.848-8.306-3.965-11.115-1.969a4.067 4.067 0 0 0-1.41 4.592c.188.542.487 1.038.88 1.456 1.599 1.834 4.562 2.264 6.854 2.103 2.291-.161 6.169-2.15 7.5-2.849a96.165 96.165 0 0 1 1.962 3.024c.403.672.833 1.344 1.196 2.063l1.115 2.103a126.753 126.753 0 0 1 1.956 4.113c.43.934.826 1.828 1.223 2.735-.72-.961-2.157-2.809-2.298-2.95-2.15-2.191-7.607-5.168-10.692-3.629a4.088 4.088 0 0 0-2.032 2.626 4.08 4.08 0 0 0 .594 3.267c1.304 2.057 4.166 2.93 6.458 3.119 2.52.208 7.614-1.593 8.245-1.822a130.616 130.616 0 0 1 1.842 4.348c.425 1.022.822 2.01 1.189 2.964l2.097-.457-1.405-3.306a232.46 232.46 0 0 0-2.164-4.778 43.427 43.427 0 0 0 4.133-3.172c2.13 1.492 7.023 2.688 7.654 2.869a196.516 196.516 0 0 1-.86 4.637c-.154.78-.309 1.512-.464 2.245l2.218-.484c.087-.457.168-.907.249-1.385.295-1.633.57-3.36.84-5.181.672 0 6.048-.087 8.366-1.156 2.083-.974 4.462-2.788 4.973-5.167a4.082 4.082 0 0 0-3.4-5.027c-3.42-.376-7.507 4.308-8.736 7.117-.074.168-.672 2.056-1.035 3.252.1-.739.215-1.451.309-2.211.208-1.498.37-2.997.55-4.616.061-.78.122-1.573.182-2.373.06-.799.06-1.632.094-2.459 0-1.922 0-3.864-.12-5.82 1.343.175 5.987.74 8.198.094 2.21-.645 4.838-2.083 5.698-4.354a4.073 4.073 0 0 0-2.594-5.484c-3.36-.893-8.064 3.119-9.744 5.706-.1.161-1.088 2.15-1.612 3.252a106.628 106.628 0 0 0-.242-3.535c-.316-3.427-.74-6.888-1.143-10.342-.127-1.061-.242-2.116-.356-3.171.464.067 6.008.86 8.487.134 2.205-.672 4.832-2.083 5.7-4.355a4.077 4.077 0 0 0-2.602-5.483c-3.36-.894-8.064 3.125-9.737 5.705-.128.195-1.545 3.064-1.868 3.81-.255-2.331-.49-4.65-.625-6.948a71.794 71.794 0 0 1 0-9.314c.215.034 5.994.887 8.534.141 2.205-.672 4.839-2.076 5.699-4.354a4.08 4.08 0 0 0-2.594-5.484c-3.36-.887-8.064 3.125-9.744 5.712-.128.202-1.653 3.279-1.888 3.864v-.551a52.438 52.438 0 0 1 1.686-9.18c.437-1.666.955-3.232 1.486-4.744 1.061.269 5.92 1.445 8.279 1.028 2.358-.416 5.033-1.539 6.142-3.702a4.082 4.082 0 0 0-1.983-5.733c-3.212-1.256-8.366 2.218-10.308 4.604-.101.127-1.028 1.565-1.694 2.62.256-.672.498-1.384.753-2.016.948-2.425 1.962-4.589 2.876-6.505.531-1.081 1.028-2.016 1.505-2.95 1.176-.275 5.914-1.458 7.782-2.889 1.868-1.432 3.757-3.683 3.743-6.115a4.076 4.076 0 0 0-2.717-3.96 4.07 4.07 0 0 0-1.684-.22c-3.428.369-6.404 5.819-7.023 8.837-.053.255-.43 4.428-.37 4.415h.068c-.477.86-.975 1.78-1.505 2.802-.955 1.895-2.016 4.032-3.024 6.458a72.005 72.005 0 0 0-2.843 7.889 52.897 52.897 0 0 0-1.909 9.26.678.678 0 0 0 0 .114c-.201-.987-.846-3.736-.92-3.944-1.035-2.897-4.738-7.883-8.185-7.775a4.074 4.074 0 0 0-3.696 3.051 4.076 4.076 0 0 0-.074 1.693c.323 2.406 2.554 4.402 4.556 5.537 2.258 1.27 7.856 1.761 8.3 1.801a72.581 72.581 0 0 0-.222 9.63c.074 1.868.201 3.75.356 5.638a43.523 43.523 0 0 0-.417-1.713c-1.035-2.897-4.744-7.883-8.185-7.775a4.07 4.07 0 0 0-3.776 4.744c.322 2.412 2.553 4.408 4.556 5.537 2.002 1.129 6.794 1.667 8.064 1.788.067.719.12 1.444.195 2.163.329 3.468.672 6.922.913 10.329.088 1.196.121 2.379.168 3.562a42.332 42.332 0 0 0-.37-1.479c-1.034-2.903-4.703-7.889-8.184-7.781a4.077 4.077 0 0 0-3.777 4.751c.323 2.412 2.56 4.408 4.556 5.537 1.996 1.129 6.33 1.613 7.83 1.761v3.601c-.055.807-.048 1.58-.142 2.386-.094.806-.154 1.586-.228 2.365-.209 1.506-.404 3.051-.672 4.51-.155 1.014-.323 1.982-.49 2.956-.068-1.196-.256-3.534-.29-3.722a15.848 15.848 0 0 0-3.743-7.07 4.394 4.394 0 0 0-.249-.867 4.076 4.076 0 0 0-2.284-2.41 4.067 4.067 0 0 0-3.32.092c-3.064 1.572-3.884 7.735-3.36 10.752 0 .175.571 2.083.927 3.279-.316-.672-.618-1.344-.954-2.016a619.676 619.676 0 0 0-2.09-4.153l-1.156-2.076c-.376-.672-.853-1.398-1.283-2.104a82.215 82.215 0 0 0-3.313-4.784c1.196-.578 5.376-2.688 6.895-4.449 1.518-1.761 2.882-4.402 2.352-6.774a4.082 4.082 0 0 0-3.506-3.269 4.105 4.105 0 0 0-1.689.144c-3.266 1.096-5.006 7.063-4.973 10.134 0 .195.276 2.399.444 3.609a66.587 66.587 0 0 0-2.15-2.822c-2.151-2.689-4.416-5.336-6.66-7.991-.672-.813-1.344-1.633-2.016-2.446.423-.201 5.483-2.6 7.15-4.576 1.485-1.754 2.883-4.402 2.352-6.774a4.067 4.067 0 0 0-1.896-2.73 4.074 4.074 0 0 0-3.299-.408c-3.266 1.089-5.006 7.056-4.973 10.134 0 .228.404 3.4.538 4.2-1.492-1.794-2.97-3.602-4.348-5.443a72.44 72.44 0 0 1-5.134-7.769c.195-.094 5.484-2.573 7.19-4.596 1.486-1.754 2.89-4.402 2.353-6.774a4.073 4.073 0 0 0-5.188-3.138c-3.273 1.088-5.013 7.056-4.98 10.134 0 .241.437 3.655.558 4.267-.087-.162-.202-.309-.289-.471a53.262 53.262 0 0 1-3.656-8.588 48.443 48.443 0 0 1-1.344-4.778c1.035-.356 5.732-2.056 7.473-3.709 1.74-1.653 3.36-4.032 3.078-6.472a4.078 4.078 0 0 0-1.58-2.923 4.085 4.085 0 0 0-3.232-.773c-3.36.726-5.752 6.465-6.048 9.529 0 .168 0 1.875.04 3.125-.167-.705-.349-1.431-.497-2.11-.55-2.547-.9-4.912-1.19-7.009a110.134 110.134 0 0 1-.369-3.293c.827-.88 4.12-4.482 4.892-6.72.773-2.237 1.102-5.147-.248-7.163a4.088 4.088 0 0 0-5.981-1.062c-2.648 2.198-2.124 8.393-.981 11.249.094.249 2.083 3.932 2.123 3.885l.054-.054c.074.981.168 2.016.29 3.172.248 2.103.543 4.482 1.04 7.056a72.718 72.718 0 0 0 2.017 8.211 52.945 52.945 0 0 0 3.514 8.77s.04.067.054.101c-.672-.719-2.762-2.655-2.937-2.782-2.466-1.848-8.306-3.965-11.115-1.969a4.067 4.067 0 0 0-1.41 4.592c.188.542.488 1.038.88 1.456 1.478 1.841 4.441 2.271 6.733 2.13Z" opacity=".1"/><path d="M75.654 144.285c.06 0 .222-4.159.202-4.422-.236-3.071-2.494-8.857-5.84-9.663a4.068 4.068 0 0 0-3.248.699 4.08 4.08 0 0 0-1.651 2.883c-.323 2.412 1.304 4.926 2.93 6.545 1.915 1.902 7.607 3.958 7.607 3.958Z" opacity=".1"/></g><g fill="#000" opacity=".1"><path d="M315.209 213.891c-2.271.081-6.969-1.882-6.969-1.882s2.231-2.688 2.399-2.856c1.889-1.767 6.586-4.065 9.119-2.688a3.442 3.442 0 0 1 .995 5.013c-1.176 1.707-3.615 2.339-5.544 2.413Z" opacity=".1"/><path d="M308.186 226.968c-2.123-.491-5.867-3.36-6.169-3.609a59.997 59.997 0 0 1-5.376 6.089 105.83 105.83 0 0 1-3.427 3.292c.605-.416 1.149-.779 1.236-.819 2.292-1.21 7.426-2.184 9.496-.155a3.437 3.437 0 0 1-.363 5.094c-1.573 1.31-4.093 1.27-5.974.833-1.882-.437-5.161-2.842-6.008-3.488-.457.41-.9.827-1.344 1.23-2.177 1.962-4.361 3.905-6.451 5.88-.733.672-1.431 1.405-2.13 2.11.537-.363.994-.672 1.068-.712 2.292-1.203 7.432-2.177 9.502-.148a3.429 3.429 0 0 1-.363 5.087c-1.572 1.344-4.092 1.277-5.98.84-1.889-.437-4.839-2.614-5.854-3.36-.672.746-1.391 1.499-2.016 2.251-.43.525-.873 1.002-1.27 1.559l-1.209 1.6c-.726 1.041-1.485 2.117-2.171 3.151-.484.719-.927 1.412-1.384 2.111.726-.706 2.17-2.016 2.305-2.144 2.083-1.539 7.009-3.279 9.367-1.593a3.432 3.432 0 0 1 1.338 2.456c.039.48-.024.963-.184 1.417a3.42 3.42 0 0 1-.744 1.221c-1.344 1.532-3.857 1.882-5.786 1.727-2.116-.161-6.108-2.339-6.605-2.614a140.328 140.328 0 0 0-2.11 3.36c-.484.793-.948 1.566-1.385 2.305l-1.68-.672c.504-.82 1.042-1.667 1.606-2.56.753-1.176 1.58-2.413 2.44-3.683a36.098 36.098 0 0 1-3.011-3.185c-1.969.954-6.196 1.344-6.72 1.344 0 1.344.047 2.688.101 3.965 0 .672.054 1.303.081 1.928l-1.774-.672V252.8c-.552-.094-5.04-.881-6.801-2.077-1.599-1.088-3.36-2.916-3.441-4.959a3.426 3.426 0 0 1 3.495-3.723c2.889.148 5.658 4.583 6.33 7.083.04.148.289 1.794.43 2.842 0-.631 0-1.236.034-1.881 0-1.27.094-2.54.154-3.905.061-.672.114-1.344.168-2.016.054-.671.168-1.344.256-2.056.221-1.599.53-3.205.873-4.818-1.115 0-5.074-.181-6.827-1.015-1.754-.833-3.737-2.372-4.153-4.381a3.42 3.42 0 0 1 .508-2.747 3.443 3.443 0 0 1 2.381-1.46c2.883-.296 6.29 3.669 7.332 6.048.067.148.625 1.935.907 2.917.215-.968.423-1.936.672-2.904.719-2.808 1.532-5.624 2.332-8.44.248-.867.477-1.727.719-2.587-.397 0-5.107-.087-7.07-1.021-1.747-.834-3.743-2.379-4.153-4.382a3.426 3.426 0 0 1 1.541-3.733 3.42 3.42 0 0 1 1.349-.474c2.883-.295 6.29 3.67 7.332 6.048.073.175.873 2.749 1.041 3.407.524-1.895 1.028-3.796 1.445-5.685a59.992 59.992 0 0 0 1.243-7.734c-.188 0-5.1-.068-7.11-1.029-1.747-.826-3.743-2.372-4.159-4.374a3.43 3.43 0 0 1 1.542-3.736c.41-.252.87-.415 1.347-.478 2.89-.295 6.29 3.676 7.332 6.048.087.188.941 2.957 1.062 3.468 0-.155.04-.309.053-.457a43.87 43.87 0 0 0-.181-7.856 50.522 50.522 0 0 0-.598-4.139c-.914.08-5.107.41-7.016-.249-1.908-.659-3.978-1.949-4.61-3.898a3.427 3.427 0 0 1 .203-2.789c.227-.424.542-.796.923-1.091.38-.296.819-.507 1.287-.622 2.829-.612 6.653 2.957 7.949 5.201.068.121.672 1.438 1.056 2.406-.115-.598-.229-1.216-.35-1.788-.464-2.143-1.021-4.079-1.525-5.785-.296-.968-.585-1.842-.861-2.688-.94-.39-4.704-2.016-6.048-3.441-1.344-1.425-2.634-3.562-2.298-5.578a3.424 3.424 0 0 1 1.461-2.387 3.437 3.437 0 0 1 2.753-.502c2.795.766 4.542 5.692 4.663 8.279 0 .228-.235 3.736-.282 3.716h-.06c.282.779.578 1.613.88 2.533.544 1.701 1.142 3.629 1.653 5.766a61.677 61.677 0 0 1 1.344 6.989c.352 2.634.472 5.294.356 7.95a.37.37 0 0 0 0 .094c.296-.8 1.203-2.997 1.29-3.159 1.244-2.264 4.987-5.92 7.836-5.376a3.432 3.432 0 0 1 2.671 3.03c.046.479-.011.963-.164 1.419-.592 1.962-2.688 3.36-4.523 4.032-2.05.759-6.767.417-7.137.39a61.352 61.352 0 0 1-1.223 8.01 115.286 115.286 0 0 1-1.048 4.637c.276-.672.531-1.284.578-1.344 1.25-2.272 4.993-5.921 7.835-5.376.471.104.914.306 1.302.592a3.436 3.436 0 0 1 1.372 2.437c.045.479-.012.963-.167 1.419-.591 1.956-2.688 3.32-4.523 3.992-1.834.672-5.866.477-6.935.403-.147.592-.295 1.19-.45 1.774-.739 2.836-1.485 5.665-2.137 8.461a79.798 79.798 0 0 0-.611 2.943c.248-.605.457-1.109.497-1.182 1.25-2.272 4.993-5.921 7.842-5.376a3.426 3.426 0 0 1 2.244 1.665 3.433 3.433 0 0 1 .263 2.783c-.592 1.956-2.688 3.32-4.53 3.992-1.841.672-5.47.49-6.72.416a69.463 69.463 0 0 0-.456 3.004c-.061.672-.169 1.344-.202 2.016l-.121 2.016c-.034 1.277-.074 2.588-.074 3.831v2.52c.215-.981.672-2.897.739-3.051a13.32 13.32 0 0 1 4.032-5.376c.086-.234.194-.459.323-.672a3.438 3.438 0 0 1 4.966-1.176c2.338 1.72 2.197 6.948 1.344 9.408-.047.141-.746 1.66-1.203 2.607.356-.517.672-1.021 1.062-1.552a144.13 144.13 0 0 1 2.291-3.172l1.237-1.572c.403-.531.894-1.049 1.344-1.58a75.423 75.423 0 0 1 3.393-3.534c-.92-.639-4.132-2.95-5.134-4.61-1.001-1.66-1.814-4.032-1.048-5.947a3.432 3.432 0 0 1 1.927-2.001 3.434 3.434 0 0 1 2.777.085c2.567 1.344 3.219 6.532 2.782 9.086 0 .154-.551 1.955-.853 2.93.712-.672 1.418-1.378 2.163-2.05 2.151-1.949 4.382-3.85 6.599-5.752l2.016-1.768c-.329-.221-4.213-2.889-5.335-4.751-1.001-1.653-1.808-4.032-1.049-5.94a3.436 3.436 0 0 1 4.704-1.922c2.568 1.344 3.219 6.532 2.783 9.085 0 .195-.787 2.776-1.008 3.421 1.485-1.29 2.95-2.601 4.341-3.945a59.762 59.762 0 0 0 5.389-5.826c-.154-.107-4.213-2.869-5.376-4.778-1.001-1.66-1.814-4.032-1.055-5.947a3.429 3.429 0 0 1 1.943-2.011 3.444 3.444 0 0 1 2.795.096c2.567 1.344 3.219 6.532 2.782 9.085-.034.202-.847 2.977-1.028 3.468.094-.115.201-.229.295-.35a44.264 44.264 0 0 0 4.187-6.646 54.188 54.188 0 0 0 1.781-3.783c-.813-.437-4.489-2.48-5.712-4.079-1.223-1.6-2.245-3.824-1.701-5.793a3.436 3.436 0 0 1 3.079-2.62c.481-.035.964.031 1.417.194 2.688 1.055 3.918 6.136 3.763 8.736 0 .141-.255 1.559-.443 2.587.228-.557.477-1.135.672-1.68.793-2.016 1.398-3.964 1.922-5.671.289-.968.531-1.855.746-2.688-.572-.847-2.829-4.274-3.172-6.223-.343-1.949-.229-4.429 1.162-5.92a3.437 3.437 0 0 1 5.108-.088c1.915 2.184.672 7.258-.672 9.475-.115.195-2.258 2.991-2.285 2.951l-.041-.054c-.188.806-.409 1.66-.672 2.594a59.941 59.941 0 0 1-1.767 5.705 60.653 60.653 0 0 1-2.755 6.559 44.379 44.379 0 0 1-4.093 6.821.53.53 0 0 1-.06.073c.672-.497 2.654-1.834 2.816-1.921 2.291-1.203 7.432-2.184 9.502-.155a3.441 3.441 0 0 1 .953 2.628 3.43 3.43 0 0 1-1.316 2.466c-1.573 1.31-4.099 1.277-5.981.833Z" opacity=".1"/><path d="M266.878 196.137c-.054 0 .369-3.488.423-3.71.605-2.513 3.253-7.022 6.142-7.244a3.443 3.443 0 0 1 2.605 1.013 3.437 3.437 0 0 1 .984 2.616c-.047 2.016-1.734 3.918-3.307 5.047-1.848 1.323-6.847 2.271-6.847 2.278Z" opacity=".1"/></g><path stroke="#263238" stroke-linecap="round" stroke-linejoin="round" d="m140.213 22.418 8.4 79.827"/><path fill="#fff" stroke="#263238" stroke-linecap="round" stroke-linejoin="round" d="m165.406 39.38-6.263 1.437-5.732 11.337-9.078-2.594-.256 2.473 11.29 4.684 4.038-5.605v9.778l12.123.524 2.48-11.081 4.429 3.91V64.54h2.607l1.566-12.902-6.909-11.21-10.295-1.048Z"/><path stroke="#263238" stroke-linecap="round" stroke-linejoin="round" d="m159.406 51.112-.094-5.517"/><path fill="#000" stroke="#263238" stroke-linecap="round" stroke-linejoin="round" d="m165.312 43.008 1.701 3.192s4.704 1.492 5.537 1.7c.833.209 3.407-.638 5.531-1.062 2.123-.423 8.944 2.977 8.944 2.977l5.96.215-3.192-3.83-11.497-1.707-5.961 1.922-4.032-1.069.86-1.666-1.915-2.984-1.936 2.312Z"/><path fill="#fff" stroke="#263238" stroke-linecap="round" stroke-linejoin="round" d="M165.924 38.465a1.344 1.344 0 0 0-1.566 1.049c-.255 1.303-.517 4.563-.517 4.563l3.125-.914 3.655 1.566s1.17-3.394.518-4.563c-.652-1.17-3.649-2.742-5.215-1.7Z"/><path fill="#fff" stroke="#263238" stroke-linecap="round" stroke-linejoin="round" d="M165.271 36.644s.39 3.65.525 4.953c.134 1.303.914 3.259 1.431 2.87.517-.39 2.345-4.033 2.345-4.033l.914-2.473-5.215-1.317ZM165.312 31.315s-1.142-.1-1.142 1.768.826 1.969.826 1.969l.316-3.737ZM172.953 32.874a1.01 1.01 0 0 1 .757.404 1.022 1.022 0 0 1 .177.84c-.208 1.142-2.177 2.688-2.177 2.688l1.243-3.932Z"/><path fill="#fff" stroke="#263238" stroke-linecap="round" stroke-linejoin="round" d="M169.183 27.552s-2.084-.524-3.26 1.956c-1.176 2.48-.914 5.476-.672 7.17.242 1.693 1.828 2.473 3.394 2.473s3.904-3.253 4.428-5.732c.525-2.48.148-5.867-3.89-5.867ZM141.812 48.115l.518 3.911 2.345.262-.39-4.435-2.473.262ZM144.332 48.055l.948-.128.188 2.083-.948.128-.188-2.083ZM178.436 64.539l-1.424 2.231.369 2.238 1.244-.121 2.116-.746.303-3.602h-2.608Z"/><path fill="#263238" stroke="#263238" stroke-linecap="round" stroke-linejoin="round" d="m159.405 60.89-.921 4.019-10.201 13.426 6.841 19.28 1.741-.376-1.492-18.407 8.333-8.83.994.625.027 9.852 9.549 16.141 1.989-.504-4.475-15.543.248-16.538-.51-2.62-12.123-.525Z"/><path fill="#fff" stroke="#263238" stroke-linecap="round" stroke-linejoin="round" d="m155.125 97.615-1.492 2.11s-2.365 1.122-2.735 1.74c-.369.619 2.016.498 2.016.498l2.735-.249 2.863-1.861-1.619-2.614-1.768.376Z"/><path fill="#000" stroke="#263238" stroke-linecap="round" stroke-linejoin="round" d="M140.569 25.26s-1.25 2.85-6.411 4.805c-5.161 1.956-12.633 3.024-14.589 7.117-1.955 4.092-1.955 3.743-2.312 6.048a6.241 6.241 0 0 1-1.78 3.555s1.78.181 2.688-1.062c.907-1.243 1.249-4.805 2.688-5.343 1.438-.537 4.052-1.404 4.052-1.404s-2.487 2.137-2.688 3.206c-.202 1.068-.356 3.561-.713 5.16a4.244 4.244 0 0 1-1.216 2.299s2.312 0 3.024-1.6c.712-1.6 0-3.736 2.312-5.342 2.311-1.606 4.805-.887 8.736-.712 3.931.174 7.654-2.13 7.654-2.13l-1.445-14.596Z"/><path fill="#fff" stroke="#263238" stroke-linecap="round" stroke-linejoin="round" d="m174.277 96.62-1.714 5.692 4.254-.168-.551-6.028-1.989.504Z"/><path fill="#263238" d="M167.758 32.545c-.074.336-.309.571-.538.524-.228-.047-.349-.363-.275-.672.073-.309.309-.571.537-.524.229.047.343.336.276.672ZM170.87 33.27c-.074.337-.309.572-.538.525-.228-.047-.349-.363-.275-.672.074-.31.309-.571.537-.524.229.047.343.329.276.672Z"/><path stroke="#263238" stroke-linecap="round" stroke-linejoin="round" d="m168.8 32.975-.826 2.493h1.35M166.938 36.194s.726 1.243 2.594.517M166.831 30.798a1.345 1.345 0 0 1 1.66.309M170.05 31.524a1.47 1.47 0 0 1 2.07.732"/><path fill="#263238" stroke="#263238" stroke-linecap="round" stroke-linejoin="round" d="m164.862 30.489 7.466-.92s-.309 1.242.108 1.551c.416.31.517 1.768.517 1.768l-.309 1.66 1.66-2.904s.517-2.284.101-3.01a1.833 1.833 0 0 0-1.243-.833 4.25 4.25 0 0 0-4.153-1.862c-2.903.31-4.147 1.76-4.147 2.903v1.647Z"/><path fill="gray" stroke="#39515E" stroke-linecap="round" stroke-linejoin="round" d="m159.351 312.614 13.171-75.579-49.714-45.622 18.043-61.475-19.313.43-8.158 7.298-17.05-.417-2.304 8.313-4.677-.585-1.613 2.917-7.977 15.926-4.146 15.906-15.456 19.32-1.693 45.589L33.546 280.6l-7.836 32.014h133.641Z"/><path fill="#ABABAB" stroke="#39515E" stroke-linecap="round" stroke-linejoin="round" d="m271.528 312.614-16.497-36.173 26.88 17.908v-28.66l-15.799-18.716 2.339-21.053-23.991-45.622-1.196-15.792-8.185-7.607-42.013 3.037-2.998-14.75-26.88-15.208-16.128 39.05-14.857 6.572 10.469 14.354-1.693 11.377 3.501 17.566-58.464 12.869s-.585 28.076-.585 30.415c0 2.338-11.7 15.792-11.7 15.792l-.543 34.641h198.34Z"/><path fill="#CCC" stroke="#39515E" stroke-linecap="round" stroke-linejoin="round" d="m304.087 312.614-6.982-3.057-8.777-18.715-10.53-7.601-4.677-11.115-4.677-8.776-24.999-12.21 3.878 61.474h56.764ZM42.437 312.541H73.69l.565-18.191-2.923-10.524V255.75l-7.016-1.169-5.853 6.431-9.354 5.268-20.275 46.335h13.602v-.074Z"/><path stroke="#39515E" stroke-miterlimit="10" d="m53.249 282.085.685-2.916M42.437 312.614l4.166-16.457 3.931-2.5 2.298-9.798M35.69 312.789l6.619-18.775M64.41 262.349l-.644 3.051M65.91 255.212l-1.224 5.826"/><path fill="#fff" stroke="#39515E" stroke-linecap="round" stroke-linejoin="round" d="m73.691 312.541.565-18.191-2.924-10.524V255.75l-5.846 37.43-5.268 1.754-1.754 10.53-1.089 7.077h16.316ZM173.786 291.796a38.26 38.26 0 0 0 9.67-2.634 15.764 15.764 0 0 0 6.317-4.704c.194-.262.376-.538.551-.813l-4.617-20.832-9.106-7.944-1.518-6.814-8.736-6.814-3.024 10.604-4.926 6.815-.376 24.991 4.704 8.992a81.913 81.913 0 0 0 11.061-.847Z"/><path stroke="#39515E" stroke-miterlimit="10" d="m173.786 291.796-.928-7.782 2.735-7.372v-4.368l-.551-6.827M179.33 268.142l1.452 8.225 2.728.544-.544 6.828 1.088 3.555M178.321 262.443l.484 2.742M169.311 244.964l2.184 22.391"/><path fill="#CCC" stroke="#39515E" stroke-linecap="round" stroke-linejoin="round" d="M142.632 291.238a124.235 124.235 0 0 0 18.984 1.411 97.99 97.99 0 0 0 3.756-.08l-.134-7.029-2.271-3.024v-21.585l3.79-3.79-.383-15.893-4.543 8.333-6.048 5.295-3.79 10.981-6.048 7.197-1.519 7.573-7.19 6.048-2.87 3.058a141.38 141.38 0 0 0 8.266 1.505Z"/><path fill="#fff" stroke="#39515E" stroke-linecap="round" stroke-linejoin="round" d="m252.067 312.615 31.752-.061-41.113-24.635-9.939-23.984-8.192-1.169-7.015-9.355-3.515 3.508 2.339 20.469-8.77 14.623v9.361l-4.093 10.524 19.784.719h28.762Z"/><path fill="#CCC" stroke="#39515E" stroke-linecap="round" stroke-linejoin="round" d="m236.141 312.574-1.498-8.366 2.358-4.939-.645-9.657 1.936 1.935 13.09 21.027h-15.241Z"/><path fill="#fff" stroke="#39515E" stroke-linecap="round" stroke-linejoin="round" d="m236.355 289.612 9.234 4.509 3.642 4.502 10.517 5.37 7.298 4.509 4.482 4.113-20.147-.041-15.026-22.962Z"/><path fill="#CCC" stroke="#39515E" stroke-linecap="round" stroke-linejoin="round" d="M207.614 292.011v9.361l-4.408 11.054 16.699.215-3.521-20.045 7.022-6.432-9.361-29.245 2.339 20.469-8.77 14.623Z"/><path stroke="#39515E" stroke-miterlimit="10" d="m224.575 262.766 6.176 13.056 2.728.276 2.184 6.552M228.722 302.266l.94 3.051M225.019 278.551l1.908 7.378 3.279 5.457-3.823 3.279 1.653 5.37"/><path fill="#CCC" stroke="#39515E" stroke-linecap="round" stroke-linejoin="round" d="m146.993 128.52-13.709 14.992-.471-27.484 13.649-16.572.531 29.064ZM137.478 188.543l14.017-12.371a14.776 14.776 0 0 1 3.327-2.178 25.08 25.08 0 0 1 4.704-1.68 43.27 43.27 0 0 1 6.317-1.048 73.078 73.078 0 0 1 8.064-.296c6.507.086 12.999.659 19.42 1.714a128.889 128.889 0 0 1 15.799 3.649c4.664 1.391 8.736 2.883 12.251 4.26 3.514 1.378 6.417 2.641 8.769 3.569l-18.191 11.793c-2.224-.873-4.986-2.063-8.299-3.36a157.476 157.476 0 0 0-11.592-4.032 120.411 120.411 0 0 0-14.945-3.42 122.968 122.968 0 0 0-18.386-1.586 68.49 68.49 0 0 0-7.647.296 40.81 40.81 0 0 0-5.975 1.001 23.39 23.39 0 0 0-4.482 1.599c-1.14.552-2.2 1.255-3.151 2.09ZM182.112 289.706l-15.819 6.048a21.027 21.027 0 0 0 3.952-1.962 13.204 13.204 0 0 0 2.943-2.561 10.015 10.015 0 0 0 1.828-3.192c.419-1.243.614-2.552.578-3.864a11.356 11.356 0 0 0-2.016-6.404 19.067 19.067 0 0 0-6.25-5.342 61.427 61.427 0 0 0-11.061-4.704c-4.57-1.539-10.08-3.058-16.565-4.637a165.84 165.84 0 0 1-25.858-8.306 88.957 88.957 0 0 1-21.108-12.271 53.274 53.274 0 0 1-14.293-17.068 50.105 50.105 0 0 1-5.376-22.734 59.73 59.73 0 0 1 .672-9.583 53.995 53.995 0 0 1 2.15-8.978 51.469 51.469 0 0 1 3.609-8.299 52.077 52.077 0 0 1 5.033-7.546l10.893-13.662a53.753 53.753 0 0 0-9.126 16.759A56.54 56.54 0 0 0 84 180.896a62.784 62.784 0 0 0-.672 10.147 53.237 53.237 0 0 0 5.746 24.091 56.65 56.65 0 0 0 15.147 18.104c6.37 5.127 13.944 9.408 22.364 12.99a175.706 175.706 0 0 0 27.364 8.83c6.888 1.68 12.687 3.299 17.519 4.932a64.705 64.705 0 0 1 11.699 5.033c3.011 1.754 5.168 3.609 6.593 5.652a11.999 11.999 0 0 1 2.157 6.78c.045 1.39-.16 2.776-.605 4.093a10.56 10.56 0 0 1-1.922 3.36 13.922 13.922 0 0 1-3.111 2.688 22.215 22.215 0 0 1-4.167 2.11Z"/><path fill="#fff" stroke="#39515E" stroke-linecap="round" stroke-linejoin="round" d="M104.22 233.238c6.371 5.127 13.944 9.408 22.364 12.99a175.74 175.74 0 0 0 27.364 8.83c6.888 1.68 12.688 3.299 17.519 4.932a64.745 64.745 0 0 1 11.7 5.033c3.01 1.754 5.168 3.609 6.592 5.652a11.983 11.983 0 0 1 2.157 6.78 10.903 10.903 0 0 1-2.164 7.016 15.736 15.736 0 0 1-6.316 4.704 38.25 38.25 0 0 1-9.65 2.634c-4.03.583-8.098.869-12.17.854a124.489 124.489 0 0 1-18.984-1.411 150.291 150.291 0 0 1-17.882-3.838 181.34 181.34 0 0 1-16.215-5.376c-5.067-1.942-9.771-4.032-14.012-6.048l-8.588 36.49h154.352a57.614 57.614 0 0 0 11.095-18.312 59.344 59.344 0 0 0 3.615-22.465c-.229-8.178-1.472-15.456-3.911-21.981a49.366 49.366 0 0 0-11.088-17.418c-5.02-5.148-11.424-9.684-19.394-13.729-7.97-4.046-17.566-7.627-28.896-10.86-7.293-2.123-13.671-4.162-19.132-6.115a109.78 109.78 0 0 1-13.615-5.766c-3.628-1.901-6.35-3.79-8.164-5.725-1.815-1.935-2.742-3.904-2.782-5.974a10.356 10.356 0 0 1 1.061-4.892 11.081 11.081 0 0 1 4.032-4.288 23.326 23.326 0 0 1 7.97-2.99 60.223 60.223 0 0 1 12.882-1.001 130.56 130.56 0 0 1 19.421 1.713 129.116 129.116 0 0 1 15.799 3.649c4.664 1.391 8.736 2.883 12.251 4.261 3.514 1.377 6.417 2.641 8.769 3.568l9.999-45.024a151.683 151.683 0 0 0-10.227-3.965 136.85 136.85 0 0 0-12.164-3.555c-4.428-1.082-9.266-2.016-14.589-2.829-5.322-.813-11.148-1.391-17.532-1.767l-.585-26.625-38.606-.934.531 29.064a101.54 101.54 0 0 0-27.216 7.735 68.341 68.341 0 0 0-20.113 13.601 54.725 54.725 0 0 0-12.338 18.561 58.752 58.752 0 0 0-4.032 22.626 53.237 53.237 0 0 0 5.745 24.091 56.654 56.654 0 0 0 15.147 18.104Z"/><path fill="#CCC" stroke="#39515E" stroke-linecap="round" stroke-linejoin="round" d="m85.935 312.48 8.588-36.51-11 6.881-7.002 29.629h9.414Z"/><path fill="#263238" d="M271.589 303.67a2.691 2.691 0 0 0-1.955.383l3.01 1.808a1.67 1.67 0 0 0-.058-1.321 1.682 1.682 0 0 0-.997-.87ZM272.436 279.881s.403-1.693.416-1.801c.135-1.27-.356-3.81-1.666-4.395a1.694 1.694 0 0 0-2.271 1.103c-.316.961.161 2.11.705 2.896.645.927 2.816 2.191 2.816 2.197ZM292.36 290.217c.82-.988 1.808-3.36 1.035-4.583a1.68 1.68 0 0 0-1.174-.73 1.68 1.68 0 0 0-1.326.394 3.527 3.527 0 0 0-1.008 2.809c0 1.122 1.136 3.36 1.143 3.36.006 0 1.29-1.163 1.33-1.25Z"/><path fill="#263238" d="M264.674 299.557c.949.607 1.988 1.06 3.078 1.344-.088.498-.175.995-.283 1.472 0 .121-.06.242-.087.37l.632.376c.04-.195.08-.396.127-.591.155-.787.283-1.586.384-2.393 1.078.398 2.211.625 3.36.672a3.542 3.542 0 0 0 2.688-1.344 1.717 1.717 0 0 0 .208-1.372 1.712 1.712 0 0 0-.88-1.074c-1.297-.611-3.542.672-4.422 1.606-.054.061-.605.8-.901 1.217.061-.491.121-.975.168-1.472.128-1.425.215-2.876.303-4.321 0-.437.06-.88.094-1.344.188.067 2.392.806 3.467.672.948-.101 2.137-.491 2.688-1.344a1.703 1.703 0 0 0-.118-1.998 1.673 1.673 0 0 0-.554-.441c-1.297-.612-3.541.672-4.421 1.606a56.914 56.914 0 0 0-1.049 1.418c.067-.968.148-1.936.262-2.89.145-1.283.369-2.555.672-3.81.088 0 2.393.813 3.488.672.954-.101 2.137-.491 2.688-1.344a1.703 1.703 0 0 0-.672-2.44c-1.297-.618-3.541.672-4.415 1.606a36.17 36.17 0 0 0-1.069 1.439c0-.074.034-.148.054-.222a22.084 22.084 0 0 1 1.378-3.629c.302-.672.631-1.257.961-1.835.416.189 2.318 1.035 3.313 1.042.994.007 2.177-.249 2.795-1.055a1.701 1.701 0 0 0-.383-2.5c-1.216-.752-3.588.282-4.563 1.116-.053.047-.544.564-.893.947.154-.262.309-.531.463-.779a41.654 41.654 0 0 1 2.5-3.542 11.226 11.226 0 0 0 3.407-.598c.847-.437 1.815-1.23 2.016-2.224a1.697 1.697 0 0 0-1.485-2.016c-1.431-.101-3.058 1.908-3.541 3.091-.041.108-.511 1.781-.484 1.781h.033c-.262.316-.537.672-.826 1.035a37.524 37.524 0 0 0-1.727 2.419 31.812 31.812 0 0 0-1.768 3.037 22.108 22.108 0 0 0-1.478 3.649v.047a33.9 33.9 0 0 0-.074-1.686c-.208-1.264-1.344-3.582-2.769-3.797a1.712 1.712 0 0 0-1.322.407 1.708 1.708 0 0 0-.586 1.253c-.047 1.014.719 2.016 1.451 2.614.834.672 3.085 1.344 3.266 1.344a30.7 30.7 0 0 0-.813 3.924 44.834 44.834 0 0 0-.275 2.339c0-.363-.041-.672-.047-.733-.209-1.263-1.344-3.588-2.769-3.796a1.678 1.678 0 0 0-.704.061 1.71 1.71 0 0 0-.618.343 1.691 1.691 0 0 0-.58 1.255c-.047 1.008.719 2.016 1.452 2.608.98.607 2.047 1.06 3.165 1.344 0 .295-.061.598-.081.9-.127 1.445-.242 2.883-.403 4.294-.054.498-.128.988-.202 1.472v-.632c-.208-1.263-1.344-3.581-2.768-3.796a1.701 1.701 0 0 0-1.746.97c-.1.216-.153.451-.156.689-.128.968.638 1.956 1.371 2.567ZM302.205 287.65c-1.136-.881-3.602-.101-4.657.625-.094.06-1.411 1.203-1.384 1.216-.39.114-.807.249-1.264.403-.833.296-1.774.632-2.768 1.069a28.213 28.213 0 0 0-3.152 1.559 22.194 22.194 0 0 0-3.246 2.224l-.033.034c.221-.357.826-1.344.86-1.445.524-1.169.853-3.736-.215-4.704a1.693 1.693 0 0 0-2.5.336c-.598.813-.504 2.056-.235 2.977.315 1.035 1.848 2.795 1.975 2.936a28.26 28.26 0 0 0-2.842 2.823 49.581 49.581 0 0 0-1.526 1.794c.188-.309.35-.591.37-.632.524-1.169.853-3.736-.215-4.704a1.7 1.7 0 0 0-1.99-.152 1.708 1.708 0 0 0-.51.488c-.598.814-.504 2.063-.228 2.977a11.17 11.17 0 0 0 1.901 2.856l-.564.672c-.901 1.143-1.794 2.278-2.688 3.36-.316.383-.672.753-.975 1.116l.316-.551c.524-1.163.854-3.73-.215-4.704a1.693 1.693 0 0 0-2.5.336c-.598.813-.504 2.056-.228 2.977a10.625 10.625 0 0 0 1.828 2.896l-.672.726.591.356c.41-.423.806-.867 1.203-1.344a11.107 11.107 0 0 0 2.433 2.392 3.54 3.54 0 0 0 2.97.336 1.68 1.68 0 0 0 .575-.409 1.68 1.68 0 0 0 .438-1.31 1.702 1.702 0 0 0-.213-.673c-.746-1.23-3.36-1.391-4.57-1.095-.081 0-.948.329-1.425.51.316-.376.639-.746.948-1.135.894-1.116 1.767-2.278 2.641-3.434l.806-1.049c.121.155 1.559 2.016 2.513 2.487a3.543 3.543 0 0 0 2.964.336 1.698 1.698 0 0 0 1.013-1.719 1.697 1.697 0 0 0-.213-.673c-.74-1.23-3.32-1.398-4.57-1.103-.094 0-1.344.478-1.653.605a53.784 53.784 0 0 1 1.814-2.264 28.623 28.623 0 0 1 2.688-2.796c.054.074 1.539 2.016 2.52 2.507.847.443 2.05.772 2.964.336a1.69 1.69 0 0 0 .938-1.016 1.69 1.69 0 0 0-.132-1.377c-.746-1.229-3.326-1.391-4.569-1.102-.101 0-1.445.511-1.687.619l.168-.162a21.887 21.887 0 0 1 3.152-2.264c.611-.377 1.216-.672 1.814-.995.242.383 1.344 2.137 2.191 2.688.846.551 1.955.988 2.909.672a1.7 1.7 0 0 0 1.062-2.291c-.605-1.304-3.151-1.748-4.422-1.593-.073 0-.766.175-1.27.302.276-.134.551-.275.813-.396a38.598 38.598 0 0 1 2.742-1.122l1.304-.451a11.408 11.408 0 0 0 3.165 1.378 3.539 3.539 0 0 0 2.89-.759 1.684 1.684 0 0 0 .296-1.959 1.696 1.696 0 0 0-.444-.541ZM267.94 312.588l.773.477.477-.35.182-.134-1.432.007ZM45.3 268.128a1.71 1.71 0 0 0-.752 1.158 1.704 1.704 0 0 0 .355 1.335 2.93 2.93 0 0 0 1.882.995l1.445-3.3c-1.015-.457-2.184-.672-2.93-.188ZM51.986 263.794c-.454.34-.777.826-.914 1.377l2.534-1.418a1.621 1.621 0 0 0-.816-.198c-.284.008-.561.09-.804.239ZM52.416 239.776c.86.726 3.286 1.385 3.286 1.385s-.047-1.734-.067-1.842c-.201-1.263-1.344-3.588-2.748-3.81a1.698 1.698 0 0 0-1.752.963c-.1.216-.154.452-.157.69-.027 1.008.766 1.996 1.438 2.614ZM34.722 247.397s-1-1.418-1.075-1.499c-.86-.941-3.09-2.258-4.395-1.66a1.694 1.694 0 0 0-.672 2.433c.511.874 1.687 1.277 2.641 1.391 1.11.128 3.501-.658 3.501-.665Z"/><path fill="#263238" d="M33.46 242.034a38.204 38.204 0 0 0 .9 4.194c.3 1.141.667 2.263 1.102 3.36a22.317 22.317 0 0 0 1.754 3.521v.04c-.316-.269-1.237-1.008-1.344-1.055-1.082-.672-3.582-1.344-4.704-.443a1.68 1.68 0 0 0-.566 1.263 1.696 1.696 0 0 0 .566 1.263c.726.706 1.969.787 2.916.672 1.069-.161 3.024-1.445 3.179-1.545a31.505 31.505 0 0 0 2.406 3.212 54.65 54.65 0 0 0 1.565 1.754l-.578-.457c-1.081-.672-3.581-1.344-4.703-.437a1.692 1.692 0 0 0-.563 1.263 1.701 1.701 0 0 0 .563 1.264 3.541 3.541 0 0 0 2.916.638 11.367 11.367 0 0 0 3.098-1.485c.208.215.41.437.618.672 1.001 1.048 2.016 2.09 2.957 3.145.336.37.672.746.974 1.122l-.504-.39c-1.082-.672-3.581-1.344-4.704-.443a1.693 1.693 0 0 0-.562 1.263 1.701 1.701 0 0 0 .562 1.264c.726.705 1.976.786 2.917.672a10.873 10.873 0 0 0 3.017-1.438c.316.389.632.786.92 1.189.189.276.39.524.565.813v.04l.256-.577.147-.088-.436-.591a33.1 33.1 0 0 0-1.54-1.875 11.22 11.22 0 0 0 2.689-2.077 3.55 3.55 0 0 0 .746-2.896 1.7 1.7 0 0 0-1.563-1.241 1.706 1.706 0 0 0-.695.119c-1.344.564-1.842 3.098-1.72 4.368 0 .081.194.988.309 1.485-.33-.37-.672-.739-.988-1.102-.988-1.042-2.016-2.063-3.038-3.091l-.927-.941c.168-.101 2.184-1.263 2.809-2.144a3.542 3.542 0 0 0 .92-2.97 1.695 1.695 0 0 0-.878-1.066 1.694 1.694 0 0 0-1.38-.063c-1.344.565-1.84 3.098-1.72 4.375 0 .094.276 1.398.363 1.727-.672-.672-1.344-1.398-2.016-2.11a29.424 29.424 0 0 1-2.392-3.051c.08-.047 2.19-1.257 2.829-2.151a3.538 3.538 0 0 0 .746-2.889 1.702 1.702 0 0 0-2.271-1.156c-1.344.564-1.842 3.098-1.72 4.375 0 .101.302 1.498.369 1.747l-.135-.182a22.283 22.283 0 0 1-1.807-3.44 29.267 29.267 0 0 1-.733-1.936 11.24 11.24 0 0 0 2.977-1.794 3.535 3.535 0 0 0 1.049-2.789 1.71 1.71 0 0 0-.765-1.14 1.693 1.693 0 0 0-1.36-.204c-1.343.417-2.163 2.877-2.19 4.16 0 .067.067.78.121 1.297-.087-.289-.188-.585-.275-.86a36.693 36.693 0 0 1-.726-2.87c-.108-.49-.195-.934-.269-1.344a11.208 11.208 0 0 0 1.801-2.95 3.517 3.517 0 0 0-.343-2.963 1.686 1.686 0 0 0-1.204-.68 1.69 1.69 0 0 0-1.309.445c-1.028 1.001-.605 3.548 0 4.704.04.04.988 1.518 1.001 1.498ZM51.2 247.014c.981.45 3.32.463 3.508.47a29.981 29.981 0 0 0 .228 4.032c.095.773.215 1.552.343 2.325-.114-.342-.215-.672-.235-.672-.524-1.169-2.231-3.111-3.656-2.95a1.703 1.703 0 0 0-1.41 2.097c.214.988 1.209 1.74 2.082 2.144 1.103.331 2.25.49 3.4.47.054.296.101.591.155.887.255 1.431.518 2.849.733 4.254.074.497.127.988.188 1.478l-.202-.605c-.53-1.169-2.238-3.111-3.662-2.95a1.697 1.697 0 0 0-1.405 2.07c.215.988 1.21 1.74 2.077 2.144.74.26 1.515.402 2.298.423l1.566-.88 1.236-.672 3.38-3.703a1.48 1.48 0 0 0-.235-.067c-1.411-.256-3.245 1.566-3.85 2.688 0 .074-.377.934-.558 1.404a38.525 38.525 0 0 0-.222-1.458c-.242-1.411-.537-2.829-.82-4.254-.094-.43-.174-.867-.255-1.303.195 0 2.52.154 3.521-.229.894-.343 1.942-1.028 2.218-2.016a1.691 1.691 0 0 0-1.29-2.157c-1.412-.255-3.24 1.566-3.844 2.688-.047.087-.538 1.344-.672 1.646a63.8 63.8 0 0 1-.49-2.862 29.47 29.47 0 0 1-.317-3.864c.094 0 2.52.161 3.549-.229a3.554 3.554 0 0 0 2.218-2.016 1.69 1.69 0 0 0-.618-1.898 1.692 1.692 0 0 0-.646-.286c-1.411-.262-3.246 1.566-3.85 2.688-.048.088-.572 1.418-.673 1.667v-.229c.02-1.296.15-2.589.39-3.864.128-.705.289-1.344.457-2.016.45.074 2.506.397 3.467.141.961-.255 2.016-.806 2.426-1.74a1.701 1.701 0 0 0-1.014-2.312c-1.344-.41-3.36 1.203-4.12 2.258a24.9 24.9 0 0 0-.618 1.143c.08-.289.161-.592.242-.867.316-1.035.672-1.969.974-2.796.188-.463.363-.88.524-1.27.484-.161 2.406-.806 3.132-1.465.726-.658 1.438-1.66 1.344-2.688a1.698 1.698 0 0 0-1.969-1.586c-1.411.269-2.46 2.634-2.62 3.905v1.848a67.38 67.38 0 0 0-.532 1.216c-.329.82-.672 1.747-1.035 2.782a30.865 30.865 0 0 0-.92 3.394 22.469 22.469 0 0 0-.417 3.924v.047a44.594 44.594 0 0 0-.51-1.606c-.531-1.169-2.238-3.111-3.663-2.95a1.698 1.698 0 0 0-1.17.734 1.696 1.696 0 0 0-.234 1.363c.215.974 1.21 1.74 2.076 2.13ZM148.66 261.919a1.695 1.695 0 0 0-1.404 2.096 3.513 3.513 0 0 0 2.076 2.144 6.916 6.916 0 0 0 2.057.403l.598-.712.336-.974c-.531-1.176-2.238-3.119-3.663-2.957ZM141.288 272.073a1.695 1.695 0 0 0-.716 1.863c.061.23.17.445.32.63.604.813 1.828 1.075 2.782 1.075a6.175 6.175 0 0 0 1.821-.417l.39-1.962-.041-.04c-.967-.84-3.333-1.889-4.556-1.149ZM147.975 267.772c-1.096.672-1.311 2.836-1.116 4.166l3.219-3.823a1.655 1.655 0 0 0-2.103-.343Z"/><path fill="#263238" d="M138.05 262.967c.208.215.41.437.618.672 1.001 1.049 2.016 2.09 2.957 3.145.336.37.672.746.974 1.122l-.504-.389c-1.082-.672-3.582-1.344-4.704-.444a1.703 1.703 0 0 0 0 2.527c.726.705 1.976.786 2.917.672a10.875 10.875 0 0 0 3.017-1.438c.316.396.632.786.921 1.189.188.276.389.524.564.813l.531.834c.242.416.491.833.726 1.243l.517-.612c-.201-.336-.41-.672-.631-1.028l-.552-.826c-.174-.276-.396-.551-.598-.827-.483-.672-1.001-1.263-1.538-1.875a11.254 11.254 0 0 0 2.688-2.076 3.565 3.565 0 0 0 .745-2.897 1.684 1.684 0 0 0-1.525-1.261 1.697 1.697 0 0 0-.692.099c-1.344.564-1.841 3.098-1.72 4.368 0 .08.194.988.309 1.485-.33-.37-.672-.739-.988-1.095-.988-1.042-2.016-2.07-3.038-3.098l-.927-.941c.168-.101 2.184-1.264 2.809-2.144a3.544 3.544 0 0 0 .746-2.889 1.71 1.71 0 0 0-.878-1.067 1.713 1.713 0 0 0-.683-.178 1.711 1.711 0 0 0-.697.116c-1.344.564-1.841 3.097-1.72 4.374 0 .094.275 1.398.363 1.727-.672-.672-1.344-1.397-2.016-2.11a29.365 29.365 0 0 1-2.393-3.051c.081-.047 2.191-1.256 2.829-2.15a3.544 3.544 0 0 0 .746-2.89 1.684 1.684 0 0 0-.326-.626 1.709 1.709 0 0 0-1.932-.503c-1.344.565-1.841 3.098-1.72 4.375 0 .101.302 1.499.37 1.747l-.135-.181a22.288 22.288 0 0 1-1.807-3.441 28.873 28.873 0 0 1-.733-1.935 11.423 11.423 0 0 0 2.977-1.788c.638-.719 1.25-1.801 1.055-2.795a1.69 1.69 0 0 0-.765-1.141 1.71 1.71 0 0 0-1.358-.203c-1.344.417-2.164 2.883-2.191 4.16 0 .067.067.779.121 1.297-.088-.289-.188-.585-.276-.861-.316-1.035-.537-2.016-.726-2.869a37.81 37.81 0 0 1-.268-1.344 11.256 11.256 0 0 0 1.801-2.95 3.53 3.53 0 0 0-.343-2.964 1.7 1.7 0 0 0-1.906-.597 1.69 1.69 0 0 0-.607.362c-1.029 1.001-.605 3.555 0 4.704.053.101 1.001 1.559 1.014 1.539a38.075 38.075 0 0 0 .901 4.193 29.186 29.186 0 0 0 1.102 3.36 22.641 22.641 0 0 0 1.754 3.528.065.065 0 0 1 0 .034 43.509 43.509 0 0 0-1.311-1.055c-1.081-.672-3.581-1.344-4.704-.437a1.69 1.69 0 0 0 0 2.52c.726.712 1.969.786 2.917.672 1.068-.161 3.024-1.445 3.178-1.546a31.624 31.624 0 0 0 2.406 3.213 54.178 54.178 0 0 0 1.566 1.754l-.578-.457c-1.082-.672-3.582-1.344-4.704-.437a1.698 1.698 0 0 0-.566 1.263 1.697 1.697 0 0 0 .566 1.263c.719.706 1.969.787 2.91.639a11.38 11.38 0 0 0 3.145-1.593ZM148.432 243.755c.86.725 3.286 1.384 3.286 1.384s-.047-1.734-.067-1.841c-.202-1.264-1.344-3.589-2.749-3.811a1.694 1.694 0 0 0-1.908 1.653c-.054 1.008.706 1.996 1.438 2.615Z"/><path fill="#263238" d="M130.711 251.382s-1.002-1.425-1.075-1.505c-.861-.941-3.092-2.258-4.395-1.66a1.69 1.69 0 0 0-.672 2.432c.51.874 1.686 1.277 2.641 1.391 1.142.128 3.501-.658 3.501-.658ZM147.168 250.992c.982.45 3.32.47 3.508.47a30.022 30.022 0 0 0 .229 3.999c.094.773.215 1.552.342 2.332-.114-.35-.215-.672-.235-.672-.524-1.17-2.231-3.112-3.655-2.95a1.689 1.689 0 0 0-1.173.734 1.693 1.693 0 0 0-.239 1.362c.215.988 1.21 1.741 2.084 2.144 1.102.331 2.249.49 3.4.47.054.296.101.592.154.887.256 1.432.518 2.856.733 4.254 0 .208.047.417.074.625l.423-1.21c-.228-1.25-.484-2.506-.732-3.763-.088-.43-.175-.867-.256-1.297.917.055 1.836.035 2.749-.06l1.183-3.421.934-.813a1.538 1.538 0 0 0-.39-.128c-1.411-.255-3.239 1.566-3.844 2.688-.047.088-.538 1.344-.672 1.647a63.729 63.729 0 0 1-.49-2.863 29.22 29.22 0 0 1-.316-3.864c.094 0 2.52.161 3.548-.228a3.566 3.566 0 0 0 2.217-2.016 1.693 1.693 0 0 0-1.263-2.184c-1.411-.262-3.246 1.565-3.85 2.688-.048.087-.572 1.418-.672 1.666v-.228c.02-1.297.15-2.59.389-3.864a36.52 36.52 0 0 1 .457-2.016c.45.074 2.507.396 3.468.141.961-.255 2.016-.807 2.426-1.741a1.695 1.695 0 0 0-.406-1.955 1.7 1.7 0 0 0-.609-.356c-1.344-.41-3.36 1.203-4.119 2.258-.041.053-.377.672-.619 1.142.081-.289.162-.591.242-.867.316-1.035.672-1.969.975-2.795.188-.464.363-.881.524-1.27.484-.162 2.406-.807 3.131-1.465.726-.659 1.438-1.66 1.344-2.688a1.698 1.698 0 0 0-1.969-1.586c-1.411.268-2.459 2.634-2.614 3.904 0 .114-.033 1.855 0 1.848a42.73 42.73 0 0 0-.524 1.216c-.336.82-.705 1.748-1.041 2.782a30.646 30.646 0 0 0-.921 3.394 22.472 22.472 0 0 0-.477 3.911v.074a43.291 43.291 0 0 0-.511-1.606c-.531-1.169-2.238-3.111-3.662-2.95a1.7 1.7 0 0 0-1.171.734 1.687 1.687 0 0 0-.234 1.362c.289.968 1.284 1.721 2.13 2.124Z"/><path fill="#fff" d="m249.07 192.299-2.681-3.326 2.412-1.902 1.62 2.023-.551 1.284.457 1.021-.948.679"/><path stroke="#263238" stroke-linecap="round" stroke-linejoin="round" d="m249.07 192.299-2.681-3.326 2.412-1.902 1.62 2.023-.551 1.284.457 1.021-.948.679"/><path fill="#000" stroke="#263238" stroke-linecap="round" stroke-linejoin="round" d="M270.815 198.072s-1.834-1.64-2.52-1.532c-.685.107-9.676 1.613-9.676 1.613l-8.273-6.754-1.263.901 7.916 9.932 8.602-.538-1.848 9.408-7.829 5.954 12.768 7.627 2.574-8.118 10.167-10.012-3.951-4.953-6.667-3.528Z"/><path fill="#fff" stroke="#263238" stroke-linecap="round" stroke-linejoin="round" d="m273.437 195.901-1.445 3.038-.531-.484-1.015 7.385 7.043-4.267-.706-1.115.162-2.305-3.508-2.252Z"/><path fill="#fff" stroke="#263238" stroke-linecap="round" stroke-linejoin="round" d="m270.446 205.84 4.12-2.5-3.441-2.419-.679 4.919Z"/><path fill="#263238" stroke="#263238" stroke-linecap="round" stroke-linejoin="round" d="M281.567 188.664s3.112-3.642 6.277-1.344 2.291 4.543 4.549 3.313c2.258-1.23 6.498-4.355 9.052-.376 2.554 3.978.585 8.144-1.021 9.099-1.607.954-1.183-.867-1.15-1.748.034-.88-2.6-2.016-3.185-.201-.584 1.814-3.656 4.61-7.553 4.348-3.898-.262-4.65-5.054-4.563-7.87a4.87 4.87 0 0 0-2.412-4.173l.006-1.048Z"/><path fill="#fff" stroke="#263238" stroke-linecap="round" stroke-linejoin="round" d="M274.108 187.911s-1.948 4.341-1.545 6.902c.403 2.56.188 4.529 1.492 5.026 1.303.498 5.624-2.117 6.578-3.844.955-1.727 2.319-4.22 1.943-6.612-.377-2.392-4.96-5.873-8.468-1.472Z"/><path fill="#263238" d="M274.848 192.467c-.101.336-.316.565-.484.511-.168-.054-.222-.363-.121-.672.101-.309.316-.564.484-.511.168.054.195.336.121.672ZM277.952 193.758c-.1.336-.322.571-.49.517-.168-.054-.222-.363-.121-.672.101-.309.322-.564.49-.517.168.047.222.336.121.672Z"/><path stroke="#263238" stroke-linecap="round" stroke-linejoin="round" d="M275.633 193.025s.202.148-.08.672c-.282.524-.961.336-.887.787.074.45.927.672.927.672M274.068 195.935s1.082 1.021 2.05.773M278.974 192.683l-2.009-.511M275.379 191.413l-.961-.861"/><path fill="#263238" stroke="#263238" stroke-linecap="round" stroke-linejoin="round" d="M274.108 187.911s-.289.672-.625 1.593c1.136-.591 3.092-1.257 4.879-.155 1.788 1.102 2.688 3.636 3.051 5.188.759-1.539 1.438-3.36 1.163-5.154-.377-2.392-4.96-5.873-8.468-1.472Z"/><path fill="#fff" d="M280.949 194.47s1.398-1.284 1.344-.114c-.054 1.169-1.66 1.861-2.016 1.915-.356.054-.329-.397-.329-.397"/><path stroke="#263238" stroke-linecap="round" stroke-linejoin="round" d="M280.949 194.47s1.398-1.284 1.344-.114c-.054 1.169-1.66 1.861-2.016 1.915-.356.054-.329-.397-.329-.397"/><path fill="#000" stroke="#263238" stroke-linecap="round" stroke-linejoin="round" d="m281.426 206.559-2.15 15.329a1.406 1.406 0 0 1-1.344 1.203h-.464a1.401 1.401 0 0 1-1.444-1.271l-.84-9.219 6.242-6.042Z"/><path fill="#000" d="m277.536 219.784-6.902-6.088-1.545 1.297 6.626 7.667a1.4 1.4 0 0 0 1.149.444h.544c.209-.009.413-.064.598-.161a1.411 1.411 0 0 0 .706-1.586"/><path stroke="#263238" stroke-linecap="round" stroke-linejoin="round" d="m277.536 219.784-6.902-6.088-1.545 1.297 6.626 7.667a1.4 1.4 0 0 0 1.149.444h.544c.209-.009.413-.064.598-.161a1.411 1.411 0 0 0 .706-1.586v0"/><path fill="#fff" stroke="#263238" stroke-linecap="round" stroke-linejoin="round" d="m270.635 213.689-1.62-2.587-3.642-.403.02 2.171 1.747 1.458 1.109.154.84.504 1.546-1.297ZM251.133 221.76s-7.607 9.899-7.191 11.538c.417 1.64 11.532 18.998 11.532 18.998l1.545-1.022-6.108-19.071 12.277-4.886-12.055-5.557Z"/><path fill="#263238" stroke="#263238" stroke-miterlimit="10" d="m257.262 225.429.9 3.958 4.066-1.559-4.966-2.399Z"/><path fill="#fff" stroke="#263238" stroke-linecap="round" stroke-linejoin="round" d="m255.474 252.262-2.016 3.36s-1.606 2.406-1.135 2.554c1.028.329 3.689-1.418 4.448-1.956.76-.537 1.573-.894 2.077-1.25s1.512-.564.134-1.841c-.464-.423-1.935-1.888-1.935-1.888l-1.573 1.021Z"/><path fill="#263238" d="M268.033 218.602a92.688 92.688 0 0 0-10.49-3.475c-6.162-1.673-10.718-2.97-10.631-1.431.088 1.539 11.297 26.329 11.297 26.329l1.922-.612-2.93-13.668s4.704 3.293 8.178 1.66c3.474-1.633 4.798-6.048 4.556-7.553"/><path stroke="#263238" stroke-linecap="round" stroke-linejoin="round" d="M268.033 218.602a92.688 92.688 0 0 0-10.49-3.475c-6.162-1.673-10.718-2.97-10.631-1.431.088 1.539 11.297 26.329 11.297 26.329l1.922-.612-2.93-13.668s4.704 3.293 8.178 1.66c3.474-1.633 4.798-6.048 4.556-7.553"/><path fill="#fff" stroke="#263238" stroke-linecap="round" stroke-linejoin="round" d="M256.233 214.771c-5.483-1.485-9.408-2.506-9.32-1.075.087 1.539 11.296 26.329 11.296 26.329l1.922-.612-2.93-13.668c1.001-2.439-.061-7.567-.968-10.974Z"/><path stroke="#263238" stroke-linecap="round" stroke-linejoin="round" d="m257.201 225.745-4.832-7.009"/><path fill="#fff" stroke="#263238" stroke-linecap="round" stroke-linejoin="round" d="m258.209 240.025-1.801 3.394s-3.636 3.521-2.829 3.702c.806.182 7.64-2.755 8.151-3.454.511-.699-1.599-4.254-1.599-4.254l-1.922.612Z"/><path stroke="#263238" stroke-miterlimit="10" d="m249.85 190.66 16.947 20.18M197.702 128.164l49.735 59.512M268.249 214.475v98.112M106.398 187.213s3.575 20.919-.309 27.552c-3.884 6.632-13.628 1.861-13.628 1.861v95.29"/><path fill="#fff" stroke="#263238" stroke-linecap="round" stroke-linejoin="round" d="M84.934 195.041s3.165-.363 3.407.37c.133.6.133 1.221 0 1.821 0 0 1.82 1.949 1.82 3.286s-1.941 1.949-1.941 1.949l-.363 3.158-4.865.242-.612-3.77s-1.828-7.177 2.554-7.056Z"/><path fill="#263238" stroke="#263238" stroke-linecap="round" stroke-linejoin="round" d="m85.909 200.256-1.344-1.949a4.903 4.903 0 0 0 .725-2.432c0-1.344-.12-3.77-2.916-3.77-2.795 0-4.623 2.19-5.228 6.935-.605 4.744 2.184 7.056 6.203 6.202 4.018-.853 2.56-4.986 2.56-4.986Z"/><path fill="#fff" d="M85.788 199.423s-2.07-.242-1.949 1.344a1.694 1.694 0 0 0 3.044.853"/><path stroke="#263238" stroke-linecap="round" stroke-linejoin="round" d="M85.788 199.423s-2.07-.242-1.949 1.344a1.694 1.694 0 0 0 3.044.853"/><path fill="#263238" stroke="#263238" stroke-linecap="round" stroke-linejoin="round" d="m82.905 207.057-4.483 1.263s-.349.874-.873 2.016c-.706 1.552-2.648 4.704-2.648 4.704l-8.971 2.56-2.883 9.294-.638 3.844 5.12-2.567.323-8.964 8.064-1.244 3.46-8.736 3.529-2.17Z"/><path fill="#000" stroke="#263238" stroke-linecap="round" stroke-linejoin="round" d="M90.048 205.746s-3.528-1.579-6.203-1.216c-2.674.363-2.432 1.707-2.432 1.707l.12 1.821s4.483-1.337 8.515-2.312ZM77.999 214.63l2.52 11.653a.886.886 0 0 0 1.277.672l5.692-2.843-9.489-9.482Z"/><path stroke="#263238" stroke-linecap="round" stroke-linejoin="round" d="m84.33 220.833-1.338 2.674"/><path fill="#263238" stroke="#263238" stroke-linecap="round" stroke-linejoin="round" d="m96.123 232.633 7.345 12.15-.974 16.43 3.528-.121 3.528-19.595-5.155-13.729-8.272 4.865Z"/><path fill="#000" stroke="#263238" stroke-linecap="round" stroke-linejoin="round" d="M81.527 208.058s-3.528 6.082-3.528 6.572c0 .491 13.75 13.743 13.75 13.743l10.462-6.935-6.572-11.424 9.462-9.287.726-12.533-1.701-.121-3.044 9.126-10.08 7.943-9.475 2.916Z"/><path fill="#fff" stroke="#263238" stroke-linecap="round" stroke-linejoin="round" d="m104.126 188.073.121-2.796 3.037-2.312.249.605v1.828l.121 1.458-1.828 1.338-1.7-.121Z"/><path fill="#263238" stroke="#263238" stroke-linecap="round" stroke-linejoin="round" d="M91.748 228.373s2.312 3.89 4.032 5.107c1.72 1.216 7.036-2.554 8.38-3.656 1.344-1.102 6.451-7.661 6.451-7.661l4.744 20.214 2.924-1.216s-1.714-26.88-2.561-27.633c-.846-.753-13.991 7.782-13.991 7.782l-9.979 7.063Z"/><path fill="#fff" stroke="#263238" stroke-linecap="round" stroke-linejoin="round" d="M118.272 241.167h4.133c.732 0 2.553-1.095 2.688-.242.134.854-3.528 3.159-4.993 3.891a18.142 18.142 0 0 1-4.375 1.096l-.37-3.528 2.917-1.217ZM106.021 261.092l2.07 3.77s2.554 1.095 2.554 1.586c0 .491-4.133.242-4.503.242-.369 0-4.496-4.032-4.496-4.032l.847-1.465 3.528-.101Z"/><path stroke="#263238" stroke-miterlimit="10" d="m107.285 182.965 39.709-54.445"/><path stroke="#263238" stroke-linecap="round" stroke-linejoin="round" d="M8.064 312.614h318.528"/></svg>